# xmcd
#
# Track frame offsets:
#	150
#	21018
#	40259
#	65574
#	88472
#	104603
#	126095
#	150084
#	167883
#	188837
#
# Disc length: 2813 seconds
#
# Revision: 3
# Processed by: cddbd v1.5.2PL0 Copyright (c) Steve Scherf et al.
# Submitted via: EZCDAudioConverter 8.0.2.1
#
DISCID=810afb0a
DTITLE=Various Artist - st. Trịnh Công Sơn
DYEAR=1989
DGENRE=Pop
TTITLE0=Kiều Nga - Cỏ xót xa đưa
TTITLE1=Tuấn Ngọc - Hạ trắng
TTITLE2=Khánh Ly - Dấu chân địa đàng
TTITLE3=Kiều Nga - Tình nhớ
TTITLE4=Như Mai - Cuối cùng cho một tình yêu
TTITLE5=Ngọc Lan - Như cánh vạc bay
TTITLE6=Sĩ Phú - Nghe những tàn phai
TTITLE7=Khánh Hà - Cát bụi
TTITLE8=Lệ Thu - Rồi như đá ngây ngô
TTITLE9=Carol Kim - Ru ta ngậm ngùi
EXTD=
EXTT0=
EXTT1=
EXTT2=
EXTT3=
EXTT4=
EXTT5=
EXTT6=
EXTT7=
EXTT8=
EXTT9=
PLAYORDER=
